<svg xmlns="http://www.w3.org/2000/svg" xmlns:svg="http://www.w3.org/2000/svg" id="svg168" width="760" height="421.5" version="1.1" viewBox="0 0 760 421.5"><metadata id="metadata172"/><defs id="defs12"><style id="style10">.a{font-size:10px;fill:#f3f3f3;font-family:RedHatText-Regular,Red Hat Text}.b,.f,.j,.k,.o,.p,.r{fill:none}.c{fill:#e8e8e8}.d{font-size:14px}.d,.g,.h,.m,.n{fill:#151515}.d,.m{font-family:RedHatText-Bold,Red Hat Text;font-weight:700}.h,.m,.n{font-size:11px}.f{stroke:#151515}.f,.i,.j,.k,.o,.p,.r{stroke-linecap:round;stroke-linejoin:round}.h{font-family:RedHatText-Medium,Red Hat Text;font-weight:500}.i,.l{fill:#fff}.i,.j,.k{stroke:#5b5b5b}.i,.k{stroke-width:1.5px}.j{stroke-width:2px}.n{font-family:RedHatText-Italic,Red Hat Text;font-style:italic}.o,.p,.r{stroke:#06c}.p{stroke-dasharray:3.009 3.009}.q{fill:#06c}.r{stroke-dasharray:2.984 2.984}</style></defs><title id="title14">cross-datacenter-arch</title><g id="g20"><text id="text16" class="a" transform="translate(679.802 404.517)">70_RHSSO_0320</text><rect id="rect18" width="760" height="40" y="381.5" class="b"/></g><rect id="rect22" width="285" height="282.5" x="475" y="99" class="c"/><rect id="rect24" width="285" height="282.5" y="99" class="c"/><text style="font-style:normal;font-variant:normal;font-weight:700;font-stretch:normal;font-size:14px;font-family:RedHatText-Bold,'Red Hat Text';-inkscape-font-specification:'RedHatText-Bold, Red Hat Text Bold';font-variant-ligatures:normal;font-variant-caps:normal;font-variant-numeric:normal;font-variant-east-asian:normal;fill:#151515" id="text28" class="d" transform="translate(20,362.23)"><tspan id="tspan263" x="0" y="0">Datacenter<tspan id="tspan265" style="font-style:normal;font-variant:normal;font-weight:400;font-stretch:normal;font-size:12px;font-family:LiberationMono,'Liberation Mono';-inkscape-font-specification:'LiberationMono, Liberation Mono Normal';font-variant-ligatures:normal;font-variant-caps:normal;font-variant-numeric:normal;font-variant-east-asian:normal">(site1)</tspan></tspan></text><g id="g34"><line id="line30" x1="64.236" x2="64.236" y1="169" y2="271.824" class="f"/><polygon id="polygon32" points="59.25 270.365 64.236 279 69.223 270.365 59.25 270.365" class="g"/></g><g id="g40"><line id="line36" x1="142.5" x2="142.5" y1="168.695" y2="193.824" class="f"/><polygon id="polygon38" points="137.514 192.365 142.5 201 147.486 192.365 137.514 192.365" class="g"/></g><g id="g46"><polyline id="polyline42" points="372.5 63.25 372.5 78.25 142.568 78.25 142.568 109.574" class="f"/><polygon id="polygon44" points="137.581 108.115 142.568 116.75 147.554 108.115 137.581 108.115" class="g"/></g><g id="g52"><polyline id="polyline48" points="387.5 63.25 387.5 78.25 617.432 78.25 617.432 109.574" class="f"/><polygon id="polygon50" points="612.446 108.115 617.432 116.75 622.419 108.115 612.446 108.115" class="g"/></g><g id="g74"><text id="text54" class="h" transform="translate(343.469 55.095)">Load balancer</text><g id="g72"><rect id="rect56" width="55" height="13.75" x="352.5" y="24.75" class="i"/><line id="line58" x1="401.621" x2="401.621" y1="30.647" y2="30.647" class="j"/><line id="line60" x1="358.393" x2="358.393" y1="30.113" y2="33.077" class="k"/><line id="line62" x1="364.286" x2="364.286" y1="30.113" y2="33.077" class="k"/><line id="line64" x1="370.179" x2="370.179" y1="30.113" y2="33.077" class="k"/><line id="line66" x1="376.071" x2="376.071" y1="30.113" y2="33.077" class="k"/><line id="line68" x1="381.964" x2="381.964" y1="30.113" y2="33.077" class="k"/><line id="line70" x1="387.857" x2="387.857" y1="30.113" y2="33.077" class="k"/></g></g><rect id="rect76" width="245" height="50" x="20" y="281.5" class="l"/><text id="text78" class="m" transform="translate(95.296 310.713)">Infinispan cluster</text><rect id="rect80" width="245" height="50" x="20" y="119" class="l"/><text id="text82" class="m" transform="translate(97.436 148.213)">Keycloak cluster</text><g id="g92"><text id="text84" class="h" transform="translate(117.921 251.215)">Database</text><g id="g90"><path id="path86" d="M124.051,214.192v10.193c0,5.629,8.259,10.192,18.449,10.192s18.449-4.563,18.449-10.192V214.192" class="i"/><ellipse id="ellipse88" cx="142.5" cy="214.192" class="i" rx="18.449" ry="10.192"/></g></g><rect id="rect94" width="35.56" height="29.115" x="46.457" y="205.192" class="c"/><text id="text98" class="n" transform="translate(45.025 216.874)">Remote<tspan id="tspan96" x="6.71" y="12">store</tspan></text><text style="font-style:normal;font-variant:normal;font-weight:700;font-stretch:normal;font-size:14px;font-family:RedHatText-Bold,'Red Hat Text';-inkscape-font-specification:'RedHatText-Bold, Red Hat Text Bold';font-variant-ligatures:normal;font-variant-caps:normal;font-variant-numeric:normal;font-variant-east-asian:normal;fill:#151515" id="text102" class="d" transform="translate(495,362.23)"><tspan id="tspan267" x="0" y="0">Datacenter<tspan id="tspan269" style="font-style:normal;font-variant:normal;font-weight:400;font-stretch:normal;font-size:12px;font-family:LiberationMono,'Liberation Mono';-inkscape-font-specification:'LiberationMono, Liberation Mono Normal';font-variant-ligatures:normal;font-variant-caps:normal;font-variant-numeric:normal;font-variant-east-asian:normal">(site2)</tspan></tspan></text><g id="g108"><line id="line104" x1="695.764" x2="695.764" y1="169" y2="271.824" class="f"/><polygon id="polygon106" points="690.777 270.365 695.764 279 700.75 270.365 690.777 270.365" class="g"/></g><g id="g114"><line id="line110" x1="617.5" x2="617.5" y1="168.695" y2="193.824" class="f"/><polygon id="polygon112" points="612.514 192.365 617.5 201 622.486 192.365 612.514 192.365" class="g"/></g><rect id="rect116" width="245" height="50" x="495" y="281.5" class="l" transform="translate(1235 613) rotate(-180)"/><text id="text118" class="m" transform="translate(570.296 310.713)">Infinispan cluster</text><rect id="rect120" width="245" height="50" x="495" y="119" class="l"/><text id="text122" class="m" transform="translate(572.436 148.213)">Keycloak cluster</text><g id="g132"><text id="text124" class="h" transform="translate(592.921 251.215)">Database</text><g id="g130"><path id="path126" d="M599.051,214.192v10.193c0,5.629,8.259,10.192,18.449,10.192s18.449-4.563,18.449-10.192V214.192" class="i"/><ellipse id="ellipse128" cx="617.5" cy="214.192" class="i" rx="18.449" ry="10.192"/></g></g><rect id="rect134" width="35.56" height="29.115" x="677.984" y="205.192" class="c"/><text id="text138" class="n" transform="translate(676.553 216.874)">Remote<tspan id="tspan136" x="6.71" y="12">store</tspan></text><g id="g150"><line id="line140" x1="485.324" x2="483.824" y1="306.5" y2="306.5" class="o"/><line id="line142" x1="480.814" x2="277.681" y1="306.5" y2="306.5" class="p"/><line id="line144" x1="276.176" x2="274.676" y1="306.5" y2="306.5" class="o"/><polygon id="polygon146" points="483.865 301.514 492.5 306.5 483.865 311.486 483.865 301.514" class="q"/><polygon id="polygon148" points="276.135 301.514 267.5 306.5 276.135 311.486 276.135 301.514" class="q"/></g><g id="g162"><line id="line152" x1="588.875" x2="587.375" y1="219.752" y2="219.752" class="o"/><line id="line154" x1="584.391" x2="174.116" y1="219.752" y2="219.752" class="r"/><line id="line156" x1="172.624" x2="171.124" y1="219.752" y2="219.752" class="o"/><polygon id="polygon158" points="587.416 214.766 596.051 219.752 587.416 224.739 587.416 214.766" class="q"/><polygon id="polygon160" points="172.583 214.766 163.948 219.752 172.583 224.739 172.583 214.766" class="q"/></g><text id="text164" class="n" transform="translate(308.154 298.472)">Cross-Datacenter Replication</text><text id="text166" class="n" transform="translate(323.438 211.724)">Active/Active database</text></svg>