<svg xmlns="http://www.w3.org/2000/svg" xmlns:svg="http://www.w3.org/2000/svg" id="svg196" width="760" height="511.5" version="1.1" viewBox="0 0 760 511.5"><metadata id="metadata200"/><defs id="defs4"><style id="style2">.a{fill:#e8e8e8}.b{font-size:10px;fill:#f3f3f3;font-family:RedHatText-Regular,Red Hat Text}.c,.d,.e,.f,.k,.l,.m{fill:none}.d,.e,.f{stroke:#06c}.d,.e,.f,.j,.k,.l,.m{stroke-linecap:round;stroke-linejoin:round}.e{stroke-dasharray:2.991 2.991}.f{stroke-dasharray:3.036 3.036}.g,.j{fill:#fff}.h{font-size:14px}.h,.i,.n{fill:#151515}.h,.o{font-family:RedHatText-Bold,Red Hat Text;font-weight:700}.i{font-size:11px;font-family:RedHatText-Medium,Red Hat Text;font-weight:500}.j,.k,.l{stroke:#5b5b5b}.j,.l{stroke-width:1.5px}.k{stroke-width:2px}.m{stroke:#151515}.o{font-size:12px;fill:#06c}</style></defs><title id="title6">1</title><rect id="rect8" width="760" height="447.5" y="24" class="a"/><g id="g14"><text id="text10" class="b" transform="translate(679.802 494.517)">70_RHSSO_0320</text><rect id="rect12" width="760" height="40" y="471.5" class="c"/></g><g id="g32"><polyline id="polyline16" points="730 440 730 441.5 728.5 441.5" class="d"/><line id="line18" x1="725.509" x2="32.996" y1="441.5" y2="441.5" class="e"/><polyline id="polyline20" points="31.5 441.5 30 441.5 30 440" class="d"/><line id="line22" x1="30" x2="30" y1="436.964" y2="232.018" class="f"/><polyline id="polyline24" points="30 230.5 30 229 31.5 229" class="d"/><line id="line26" x1="34.491" x2="727.004" y1="229" y2="229" class="e"/><polyline id="polyline28" points="728.5 229 730 229 730 230.5" class="d"/><line id="line30" x1="730" x2="730" y1="233.536" y2="438.482" class="f"/></g><rect id="rect34" width="660" height="112.5" x="50" y="309" class="g"/><text id="text36" class="h" transform="translate(65 335.788)">Cluster</text><g id="g42"><text id="text38" class="i" transform="translate(345.62 206.887)">Public access</text><path id="path40" d="M397.621,174.656a15.65,15.65,0,0,0-29.291-7.676,11.753,11.753,0,1,0-2.02,23.331h31.311a7.828,7.828,0,0,0,0-15.655Z" class="j"/></g><g id="g58"><text id="text44" class="i" transform="translate(560.805 109.669)">Client</text><g id="g56"><rect id="rect46" width="48.5" height="37.18" x="551.933" y="55.895" class="j"/><line id="line48" x1="594.837" x2="594.837" y1="61.476" y2="61.476" class="k"/><line id="line50" x1="591.106" x2="591.106" y1="61.476" y2="61.476" class="k"/><line id="line52" x1="587.375" x2="587.375" y1="61.476" y2="61.476" class="k"/><line id="line54" x1="557.529" x2="572.452" y1="61.476" y2="61.476" class="l"/></g></g><g id="g64"><line id="line60" x1="380" x2="380" y1="114.669" y2="147.493" class="m"/><polygon id="polygon62" points="375.013 146.034 380 154.669 384.986 146.034 375.013 146.034" class="n"/></g><g id="g70"><line id="line66" x1="380" x2="380" y1="211.887" y2="244.461" class="m"/><polygon id="polygon68" points="375.013 243.002 380 251.637 384.986 243.002 375.013 243.002" class="n"/></g><g id="g86"><text id="text72" class="i" transform="translate(364.622 109.669)">Client</text><g id="g84"><rect id="rect74" width="48.5" height="37.18" x="355.75" y="55.895" class="j"/><line id="line76" x1="398.654" x2="398.654" y1="61.476" y2="61.476" class="k"/><line id="line78" x1="394.923" x2="394.923" y1="61.476" y2="61.476" class="k"/><line id="line80" x1="391.192" x2="391.192" y1="61.476" y2="61.476" class="k"/><line id="line82" x1="361.346" x2="376.269" y1="61.476" y2="61.476" class="l"/></g></g><g id="g92"><polyline id="polyline88" points="183.817 114.669 183.817 129.669 365 129.669 365 147.493" class="m"/><polygon id="polygon90" points="360.013 146.034 365 154.669 369.986 146.034 360.013 146.034" class="n"/></g><g id="g98"><polyline id="polyline94" points="576.183 114.669 576.183 129.669 395 129.669 395 147.493" class="m"/><polygon id="polygon96" points="390.014 146.034 395 154.669 399.986 146.034 390.014 146.034" class="n"/></g><g id="g104"><line id="line100" x1="380" x2="380" y1="293.25" y2="351.074" class="m"/><polygon id="polygon102" points="375.013 349.615 380 358.25 384.986 349.615 375.013 349.615" class="n"/></g><g id="g110"><polyline id="polyline106" points="395 293.25 395 333.25 576.183 333.25 576.183 351.074" class="m"/><polygon id="polygon108" points="571.196 349.615 576.183 358.25 581.169 349.615 571.196 349.615" class="n"/></g><g id="g116"><polyline id="polyline112" points="365 293.25 365 333.25 183.817 333.25 183.817 351.074" class="m"/><polygon id="polygon114" points="178.83 349.615 183.817 358.25 188.803 349.615 178.83 349.615" class="n"/></g><g id="g132"><text id="text118" class="i" transform="translate(168.439 109.669)">Client</text><g id="g130"><rect id="rect120" width="48.5" height="37.18" x="159.567" y="55.895" class="j"/><line id="line122" x1="202.471" x2="202.471" y1="61.476" y2="61.476" class="k"/><line id="line124" x1="198.74" x2="198.74" y1="61.476" y2="61.476" class="k"/><line id="line126" x1="195.009" x2="195.009" y1="61.476" y2="61.476" class="k"/><line id="line128" x1="165.163" x2="180.086" y1="61.476" y2="61.476" class="l"/></g></g><g id="g154"><text id="text134" class="i" transform="translate(343.469 285.095)">Load balancer</text><g id="g152"><rect id="rect136" width="55" height="13.75" x="352.5" y="254.75" class="j"/><line id="line138" x1="401.621" x2="401.621" y1="260.647" y2="260.647" class="k"/><line id="line140" x1="358.393" x2="358.393" y1="260.113" y2="263.077" class="l"/><line id="line142" x1="364.286" x2="364.286" y1="260.113" y2="263.077" class="l"/><line id="line144" x1="370.179" x2="370.179" y1="260.113" y2="263.077" class="l"/><line id="line146" x1="376.071" x2="376.071" y1="260.113" y2="263.077" class="l"/><line id="line148" x1="381.964" x2="381.964" y1="260.113" y2="263.077" class="l"/><line id="line150" x1="387.857" x2="387.857" y1="260.113" y2="263.077" class="l"/></g></g><g id="g166"><text id="text156" class="i" transform="translate(145.834,391.47)" style="font-weight:500;font-size:11px;font-family:RedHatText-Medium,'Red Hat Text';fill:#151515">Keycloak server</text><g id="g164"><rect id="rect158" width="55" height="13.75" x="156.249" y="361.125" class="j"/><line id="line160" x1="205.37" x2="205.37" y1="367.022" y2="367.022" class="k"/><line id="line162" x1="162.985" x2="171.235" y1="368.982" y2="368.982" class="l"/></g></g><g id="g178"><text id="text168" class="i" transform="translate(342.085,391.47)" style="font-weight:500;font-size:11px;font-family:RedHatText-Medium,'Red Hat Text';fill:#151515">Keycloak server</text><g id="g176"><rect id="rect170" width="55" height="13.75" x="352.5" y="361.125" class="j"/><line id="line172" x1="401.62" x2="401.62" y1="367.022" y2="367.022" class="k"/><line id="line174" x1="359.235" x2="367.485" y1="368.982" y2="368.982" class="l"/></g></g><g id="g190"><text id="text180" class="i" transform="translate(538.335,391.47)" style="font-weight:500;font-size:11px;font-family:RedHatText-Medium,'Red Hat Text';fill:#151515">Keycloak server</text><g id="g188"><rect id="rect182" width="55" height="13.75" x="548.75" y="361.125" class="j"/><line id="line184" x1="597.871" x2="597.871" y1="367.022" y2="367.022" class="k"/><line id="line186" x1="555.485" x2="563.735" y1="368.982" y2="368.982" class="l"/></g></g><rect id="rect192" width="112.617" height="20.477" x="57.468" y="217.149" class="a"/><text id="text194" class="o" transform="translate(65 232.624)">Private network</text></svg>