<svg xmlns="http://www.w3.org/2000/svg" width="760" height="511.5" viewBox="0 0 760 511.5"><defs><style>.a{fill:#e8e8e8}.b{font-size:10px;fill:#f3f3f3;font-family:RedHatText-Regular,Red Hat Text}.c,.d,.e,.f,.k,.l,.m{fill:none}.d,.e,.f{stroke:#06c}.d,.e,.f,.j,.k,.l,.m{stroke-linecap:round;stroke-linejoin:round}.e{stroke-dasharray:2.991 2.991}.f{stroke-dasharray:3.036 3.036}.g,.j{fill:#fff}.h{font-size:14px}.h,.i,.n{fill:#151515}.h,.o{font-family:RedHatText-Bold,Red Hat Text;font-weight:700}.i{font-size:11px;font-family:RedHatText-Medium,Red Hat Text;font-weight:500}.j,.k,.l{stroke:#5b5b5b}.j,.l{stroke-width:1.5px}.k{stroke-width:2px}.m{stroke:#151515}.o{font-size:12px;fill:#06c}</style></defs><title>1</title><rect width="760" height="447.5" y="24" class="a"/><g><text class="b" transform="translate(679.802 494.517)">70_RHSSO_0320</text><rect width="760" height="40" y="471.5" class="c"/></g><g><polyline points="730 440 730 441.5 728.5 441.5" class="d"/><line x1="725.509" x2="32.996" y1="441.5" y2="441.5" class="e"/><polyline points="31.5 441.5 30 441.5 30 440" class="d"/><line x1="30" x2="30" y1="436.964" y2="232.018" class="f"/><polyline points="30 230.5 30 229 31.5 229" class="d"/><line x1="34.491" x2="727.004" y1="229" y2="229" class="e"/><polyline points="728.5 229 730 229 730 230.5" class="d"/><line x1="730" x2="730" y1="233.536" y2="438.482" class="f"/></g><rect width="660" height="112.5" x="50" y="309" class="g"/><text class="h" transform="translate(65 335.788)">Cluster</text><g><text class="i" transform="translate(345.62 206.887)">Public access</text><path d="M397.621,174.656a15.65,15.65,0,0,0-29.291-7.676,11.753,11.753,0,1,0-2.02,23.331h31.311a7.828,7.828,0,0,0,0-15.655Z" class="j"/></g><g><text class="i" transform="translate(560.805 109.669)">Client</text><g><rect width="48.5" height="37.18" x="551.933" y="55.895" class="j"/><line x1="594.837" x2="594.837" y1="61.476" y2="61.476" class="k"/><line x1="591.106" x2="591.106" y1="61.476" y2="61.476" class="k"/><line x1="587.375" x2="587.375" y1="61.476" y2="61.476" class="k"/><line x1="557.529" x2="572.452" y1="61.476" y2="61.476" class="l"/></g></g><g><line x1="380" x2="380" y1="114.669" y2="147.493" class="m"/><polygon points="375.013 146.034 380 154.669 384.986 146.034 375.013 146.034" class="n"/></g><g><line x1="380" x2="380" y1="211.887" y2="244.461" class="m"/><polygon points="375.013 243.002 380 251.637 384.986 243.002 375.013 243.002" class="n"/></g><g><text class="i" transform="translate(364.622 109.669)">Client</text><g><rect width="48.5" height="37.18" x="355.75" y="55.895" class="j"/><line x1="398.654" x2="398.654" y1="61.476" y2="61.476" class="k"/><line x1="394.923" x2="394.923" y1="61.476" y2="61.476" class="k"/><line x1="391.192" x2="391.192" y1="61.476" y2="61.476" class="k"/><line x1="361.346" x2="376.269" y1="61.476" y2="61.476" class="l"/></g></g><g><polyline points="183.817 114.669 183.817 129.669 365 129.669 365 147.493" class="m"/><polygon points="360.013 146.034 365 154.669 369.986 146.034 360.013 146.034" class="n"/></g><g><polyline points="576.183 114.669 576.183 129.669 395 129.669 395 147.493" class="m"/><polygon points="390.014 146.034 395 154.669 399.986 146.034 390.014 146.034" class="n"/></g><g><line x1="380" x2="380" y1="293.25" y2="351.074" class="m"/><polygon points="375.013 349.615 380 358.25 384.986 349.615 375.013 349.615" class="n"/></g><g><polyline points="395 293.25 395 333.25 576.183 333.25 576.183 351.074" class="m"/><polygon points="571.196 349.615 576.183 358.25 581.169 349.615 571.196 349.615" class="n"/></g><g><polyline points="365 293.25 365 333.25 183.817 333.25 183.817 351.074" class="m"/><polygon points="178.83 349.615 183.817 358.25 188.803 349.615 178.83 349.615" class="n"/></g><g><text class="i" transform="translate(168.439 109.669)">Client</text><g><rect width="48.5" height="37.18" x="159.567" y="55.895" class="j"/><line x1="202.471" x2="202.471" y1="61.476" y2="61.476" class="k"/><line x1="198.74" x2="198.74" y1="61.476" y2="61.476" class="k"/><line x1="195.009" x2="195.009" y1="61.476" y2="61.476" class="k"/><line x1="165.163" x2="180.086" y1="61.476" y2="61.476" class="l"/></g></g><g><text class="i" transform="translate(343.469 285.095)">Load balancer</text><g><rect width="55" height="13.75" x="352.5" y="254.75" class="j"/><line x1="401.621" x2="401.621" y1="260.647" y2="260.647" class="k"/><line x1="358.393" x2="358.393" y1="260.113" y2="263.077" class="l"/><line x1="364.286" x2="364.286" y1="260.113" y2="263.077" class="l"/><line x1="370.179" x2="370.179" y1="260.113" y2="263.077" class="l"/><line x1="376.071" x2="376.071" y1="260.113" y2="263.077" class="l"/><line x1="381.964" x2="381.964" y1="260.113" y2="263.077" class="l"/><line x1="387.857" x2="387.857" y1="260.113" y2="263.077" class="l"/></g></g><g><text class="i" transform="translate(145.834 391.47)">RH SSO server</text><g><rect width="55" height="13.75" x="156.249" y="361.125" class="j"/><line x1="205.37" x2="205.37" y1="367.022" y2="367.022" class="k"/><line x1="162.985" x2="171.235" y1="368.982" y2="368.982" class="l"/></g></g><g><text class="i" transform="translate(342.085 391.47)">RH SSO server</text><g><rect width="55" height="13.75" x="352.5" y="361.125" class="j"/><line x1="401.62" x2="401.62" y1="367.022" y2="367.022" class="k"/><line x1="359.235" x2="367.485" y1="368.982" y2="368.982" class="l"/></g></g><g><text class="i" transform="translate(538.335 391.47)">RH SSO server</text><g><rect width="55" height="13.75" x="548.75" y="361.125" class="j"/><line x1="597.871" x2="597.871" y1="367.022" y2="367.022" class="k"/><line x1="555.485" x2="563.735" y1="368.982" y2="368.982" class="l"/></g></g><rect width="112.617" height="20.477" x="57.468" y="217.149" class="a"/><text class="o" transform="translate(65 232.624)">Private network</text></svg>